<svg xmlns="http://www.w3.org/2000/svg" width="320" height="660" viewBox="0 0 320 660" role="img" aria-label="Screenshot Platzhalter — Menü">
  <defs>
    <style>
      .serif{font-family:Georgia,'Times New Roman',serif}
      .mono{font-family:ui-monospace,Menlo,monospace}
    </style>
  </defs>
  <rect x="6" y="6" width="308" height="648" rx="40" fill="#1A212B" stroke="#374252" stroke-width="3"/>
  <rect x="18" y="18" width="284" height="624" rx="30" fill="#10141A"/>

  <!-- top bar: profile + settings -->
  <circle cx="48" cy="52" r="13" fill="none" stroke="#5D6776" stroke-width="2"/>
  <circle cx="48" cy="47" r="4.5" fill="#8A94A1"/>
  <path d="M40 60 a8 6 0 0 1 16 0" fill="#8A94A1"/>
  <g stroke="#8A94A1" stroke-width="2" fill="none">
    <circle cx="272" cy="52" r="6"/>
    <line x1="272" y1="42" x2="272" y2="46"/><line x1="272" y1="58" x2="272" y2="62"/>
    <line x1="262" y1="52" x2="266" y2="52"/><line x1="278" y1="52" x2="282" y2="52"/>
  </g>

  <!-- logo mark -->
  <g transform="translate(135,76) scale(0.040)">
    <circle cx="540" cy="540" r="290" fill="none" stroke="#3A4656" stroke-width="34"/>
    <g stroke="#D65A4C" stroke-width="36" stroke-linecap="round">
      <line x1="540" y1="220" x2="540" y2="295"/><line x1="540" y1="785" x2="540" y2="860"/>
      <line x1="220" y1="540" x2="295" y2="540"/><line x1="785" y1="540" x2="860" y2="540"/></g>
    <path fill="#E0AA48" d="M405 380 L560 380 C660 380 720 446 720 540 C720 634 660 700 560 700 L405 700 Z M470 442 L470 638 L550 638 C610 638 650 600 650 540 C650 480 610 442 550 442 Z"/>
  </g>
  <text x="160" y="148" class="serif" font-size="28" font-weight="800" letter-spacing="3" fill="#DBE1E9" text-anchor="middle">DELIKTA</text>
  <text x="160" y="170" class="mono" font-size="8.5" letter-spacing="2" fill="#E0AA48" text-anchor="middle">EIN NEUER KRIMINALFALL · TÄGLICH</text>

  <!-- streak + hint balance (two columns) -->
  <rect x="34" y="190" width="252" height="96" rx="12" fill="#151A22" stroke="#2A3340"/>
  <line x1="160" y1="206" x2="160" y2="270" stroke="#2A3340"/>
  <text x="97" y="216" class="mono" font-size="8.5" letter-spacing="2" fill="#8A94A1" text-anchor="middle">LAUFENDE SERIE</text>
  <text x="97" y="256" class="serif" font-size="38" font-weight="800" fill="#E0AA48" text-anchor="middle">8</text>
  <text x="97" y="276" class="mono" font-size="8" letter-spacing="1.5" fill="#5D6776" text-anchor="middle">TAGE IN SERIE</text>
  <text x="223" y="216" class="mono" font-size="8.5" letter-spacing="2" fill="#8A94A1" text-anchor="middle">TIPPKONTO</text>
  <text x="223" y="256" class="serif" font-size="38" font-weight="800" fill="#DBE1E9" text-anchor="middle">3</text>
  <text x="223" y="276" class="mono" font-size="8" letter-spacing="1.5" fill="#5D6776" text-anchor="middle">TIPPS</text>

  <!-- daily case hero card -->
  <rect x="34" y="302" width="252" height="180" rx="14" fill="#202836" stroke="#E0AA48"/>
  <rect x="34" y="302" width="252" height="104" rx="14" fill="#151A22"/>
  <rect x="34" y="372" width="252" height="34" fill="#151A22"/>
  <!-- faint scene motif -->
  <g opacity="0.5" stroke="#3A4656" stroke-width="2" fill="none">
    <circle cx="160" cy="352" r="30"/>
    <line x1="160" y1="300" x2="160" y2="316"/><line x1="160" y1="388" x2="160" y2="404"/>
    <line x1="108" y1="352" x2="124" y2="352"/><line x1="196" y1="352" x2="212" y2="352"/>
  </g>
  <text x="50" y="440" class="serif" font-size="18" font-weight="bold" fill="#DBE1E9">Täglicher Fall</text>
  <text x="50" y="464" class="serif" font-size="11" fill="#8A94A1">Der eine Fall des heutigen Tages</text>

  <!-- settings -->
  <rect x="34" y="498" width="252" height="58" rx="12" fill="#1A212B" stroke="#2A3340"/>
  <text x="50" y="524" class="serif" font-size="14" fill="#DBE1E9">Einstellungen</text>
  <text x="50" y="544" class="serif" font-size="11" fill="#8A94A1">Sprache &amp; Textgröße anpassen</text>

  <text x="160" y="600" class="serif" font-size="13" fill="#5D6776" text-anchor="middle" font-style="italic">Ein neuer Fall. Jeden Tag.</text>
</svg>
