<svg xmlns="http://www.w3.org/2000/svg" width="320" height="660" viewBox="0 0 320 660" role="img" aria-label="Screenshot Platzhalter — Menü">
  <defs>
    <style>
      .serif{font-family:Georgia,'Times New Roman',serif}
      .mono{font-family:ui-monospace,Menlo,monospace}
    </style>
  </defs>
  <rect x="6" y="6" width="308" height="648" rx="40" fill="#1A212B" stroke="#374252" stroke-width="3"/>
  <rect x="18" y="18" width="284" height="624" rx="30" fill="#10141A"/>

  <!-- top bar: profile + settings -->
  <circle cx="48" cy="52" r="13" fill="none" stroke="#5D6776" stroke-width="2"/>
  <circle cx="48" cy="47" r="4.5" fill="#8A94A1"/>
  <path d="M40 60 a8 6 0 0 1 16 0" fill="#8A94A1"/>
  <g stroke="#8A94A1" stroke-width="2" fill="none">
    <circle cx="272" cy="52" r="6"/>
    <line x1="272" y1="42" x2="272" y2="46"/><line x1="272" y1="58" x2="272" y2="62"/>
    <line x1="262" y1="52" x2="266" y2="52"/><line x1="278" y1="52" x2="282" y2="52"/>
  </g>

  <!-- logo mark: Fingerabdruck + Lupe (neues App-Icon) -->
  <g transform="translate(160,84)" fill="none" stroke="#E0AA48" stroke-width="2.4" stroke-linecap="round">
    <path d="M-9 -1 a9 9 0 0 1 18 0"/>
    <path d="M-13 1 a13 12 0 0 1 26 -1"/>
    <path d="M-17 3 a17 16 0 0 1 34 -2"/>
    <path d="M-5 1 a5 6 0 0 1 10 0 v6"/>
    <path d="M-9 9 q9 5 18 0"/>
    <path d="M-13 13 q13 6 24 1"/>
    <circle cx="3" cy="3" r="8.5"/>
    <line x1="9" y1="9" x2="16" y2="16"/>
  </g>
  <text x="160" y="148" class="serif" font-size="28" font-weight="800" letter-spacing="3" fill="#DBE1E9" text-anchor="middle">DELIKTA</text>
  <text x="160" y="170" class="mono" font-size="8.5" letter-spacing="2" fill="#E0AA48" text-anchor="middle">EIN NEUER KRIMINALFALL · TÄGLICH</text>

  <!-- streak + hint balance (two columns) -->
  <rect x="34" y="190" width="252" height="96" rx="12" fill="#151A22" stroke="#2A3340"/>
  <line x1="160" y1="206" x2="160" y2="270" stroke="#2A3340"/>
  <text x="97" y="216" class="mono" font-size="8.5" letter-spacing="2" fill="#8A94A1" text-anchor="middle">LAUFENDE SERIE</text>
  <text x="97" y="256" class="serif" font-size="38" font-weight="800" fill="#E0AA48" text-anchor="middle">8</text>
  <text x="97" y="276" class="mono" font-size="8" letter-spacing="1.5" fill="#5D6776" text-anchor="middle">TAGE IN SERIE</text>
  <text x="223" y="216" class="mono" font-size="8.5" letter-spacing="2" fill="#8A94A1" text-anchor="middle">TIPPKONTO</text>
  <text x="223" y="256" class="serif" font-size="38" font-weight="800" fill="#DBE1E9" text-anchor="middle">3</text>
  <text x="223" y="276" class="mono" font-size="8" letter-spacing="1.5" fill="#5D6776" text-anchor="middle">TIPPS</text>

  <!-- daily case hero card -->
  <rect x="34" y="302" width="252" height="180" rx="14" fill="#202836" stroke="#E0AA48"/>
  <rect x="34" y="302" width="252" height="104" rx="14" fill="#151A22"/>
  <rect x="34" y="372" width="252" height="34" fill="#151A22"/>
  <!-- faint scene motif: Lupe (neutral, passend zum Icon) -->
  <g opacity="0.5" stroke="#3A4656" stroke-width="2" fill="none">
    <circle cx="150" cy="344" r="26"/>
    <line x1="169" y1="363" x2="186" y2="380"/>
    <path d="M138 344 a12 12 0 0 1 24 0" opacity="0.7"/>
  </g>
  <text x="50" y="440" class="serif" font-size="18" font-weight="bold" fill="#DBE1E9">Täglicher Fall</text>
  <text x="50" y="464" class="serif" font-size="11" fill="#8A94A1">Der eine Fall des heutigen Tages</text>

  <!-- settings -->
  <rect x="34" y="498" width="252" height="58" rx="12" fill="#1A212B" stroke="#2A3340"/>
  <text x="50" y="524" class="serif" font-size="14" fill="#DBE1E9">Einstellungen</text>
  <text x="50" y="544" class="serif" font-size="11" fill="#8A94A1">Sprache &amp; Textgröße anpassen</text>

  <text x="160" y="600" class="serif" font-size="13" fill="#5D6776" text-anchor="middle" font-style="italic">Ein neuer Fall. Jeden Tag.</text>
</svg>
