<svg xmlns="http://www.w3.org/2000/svg" width="320" height="660" viewBox="0 0 320 660" role="img" aria-label="Screenshot Platzhalter — Menü">
  <defs>
    <style>
      .serif{font-family:Georgia,'Times New Roman',serif}
      .mono{font-family:ui-monospace,Menlo,monospace}
    </style>
  </defs>
  <rect x="6" y="6" width="308" height="648" rx="40" fill="#1A212B" stroke="#374252" stroke-width="3"/>
  <rect x="18" y="18" width="284" height="624" rx="30" fill="#10141A"/>
  <!-- logo mark -->
  <g transform="translate(135,70) scale(0.046)">
    <circle cx="540" cy="540" r="290" fill="none" stroke="#3A4656" stroke-width="34"/>
    <g stroke="#D65A4C" stroke-width="36" stroke-linecap="round">
      <line x1="540" y1="220" x2="540" y2="295"/><line x1="540" y1="785" x2="540" y2="860"/>
      <line x1="220" y1="540" x2="295" y2="540"/><line x1="785" y1="540" x2="860" y2="540"/></g>
    <path fill="#E0AA48" d="M405 380 L560 380 C660 380 720 446 720 540 C720 634 660 700 560 700 L405 700 Z M470 442 L470 638 L550 638 C610 638 650 600 650 540 C650 480 610 442 550 442 Z"/>
  </g>
  <text x="160" y="150" class="serif" font-size="30" font-weight="800" letter-spacing="3" fill="#DBE1E9" text-anchor="middle">DELIKTA</text>
  <text x="160" y="174" class="mono" font-size="9" letter-spacing="2" fill="#E0AA48" text-anchor="middle">PROZEDURALER KRIMINALFALL · TÄGLICH</text>
  <!-- streak -->
  <rect x="34" y="196" width="252" height="84" rx="12" fill="#151A22" stroke="#2A3340"/>
  <text x="160" y="246" class="serif" font-size="40" font-weight="800" fill="#E0AA48" text-anchor="middle">7</text>
  <text x="160" y="268" class="mono" font-size="9" letter-spacing="2" fill="#8A94A1" text-anchor="middle">TAGE IN SERIE</text>
  <!-- daily card -->
  <rect x="34" y="296" width="252" height="80" rx="12" fill="#202836" stroke="#E0AA48"/>
  <text x="50" y="332" class="serif" font-size="16" font-weight="bold" fill="#DBE1E9">Täglicher Fall</text>
  <text x="50" y="356" class="serif" font-size="11" fill="#8A94A1">Der eine Fall des heutigen Tages</text>
  <!-- practice card -->
  <rect x="34" y="388" width="252" height="80" rx="12" fill="#1A212B" stroke="#2A3340"/>
  <text x="50" y="424" class="serif" font-size="16" font-weight="bold" fill="#DBE1E9">Fall üben</text>
  <text x="50" y="448" class="serif" font-size="11" fill="#8A94A1">Zufallsfall · startet nach kurzem Video</text>
  <!-- settings -->
  <rect x="34" y="480" width="252" height="60" rx="12" fill="#1A212B" stroke="#2A3340"/>
  <text x="50" y="508" class="serif" font-size="14" fill="#DBE1E9">Einstellungen</text>
  <text x="50" y="528" class="serif" font-size="11" fill="#8A94A1">Sprache anpassen</text>
  <text x="160" y="600" class="serif" font-size="13" fill="#5D6776" text-anchor="middle" font-style="italic">Ein neuer Fall. Jeden Tag.</text>
</svg>
