<svg xmlns="http://www.w3.org/2000/svg" width="320" height="660" viewBox="0 0 320 660" role="img" aria-label="Screenshot Platzhalter — Täter">
  <defs>
    <style>
      .serif{font-family:Georgia,'Times New Roman',serif}
      .mono{font-family:ui-monospace,Menlo,monospace}
    </style>
  </defs>
  <rect x="6" y="6" width="308" height="648" rx="40" fill="#1A212B" stroke="#374252" stroke-width="3"/>
  <rect x="18" y="18" width="284" height="624" rx="30" fill="#10141A"/>
  <!-- status / header -->
  <text x="40" y="62" class="mono" font-size="10" letter-spacing="2" fill="#8A94A1">‹ MENÜ</text>
  <text x="280" y="62" class="mono" font-size="10" letter-spacing="2" fill="#E0AA48" text-anchor="end">SERIE 7</text>
  <text x="40" y="100" class="mono" font-size="9" letter-spacing="2" fill="#8A94A1">FALL-TYP: TÄTER · NR. 128</text>
  <text x="40" y="132" class="serif" font-size="20" font-weight="bold" fill="#DBE1E9">Der Tod von Lenz</text>
  <!-- paper brief -->
  <rect x="34" y="150" width="252" height="92" rx="6" fill="#ECE6D6" stroke="#D9D1BD" stroke-width="2"/>
  <line x1="48" y1="176" x2="272" y2="176" stroke="#CFC6AD"/>
  <line x1="48" y1="198" x2="272" y2="198" stroke="#CFC6AD"/>
  <line x1="48" y1="220" x2="272" y2="220" stroke="#CFC6AD"/>
  <text x="48" y="172" class="serif" font-size="11" fill="#2C2820">Vier Personen stehen unter Verdacht —</text>
  <text x="48" y="194" class="serif" font-size="11" fill="#2C2820">genau eine hatte Motiv, Mittel und</text>
  <text x="48" y="216" class="serif" font-size="11" fill="#2C2820">Gelegenheit. Wer ist der Täter?</text>
  <!-- suspects -->
  <text x="40" y="272" class="mono" font-size="9" letter-spacing="2" fill="#8A94A1">VERDÄCHTIGE</text>
  <g>
    <rect x="34" y="284" width="252" height="56" rx="8" fill="#202836" stroke="#2A3340"/>
    <text x="48" y="312" class="serif" font-size="13" fill="#DBE1E9">Ada Brunner</text>
    <text x="48" y="330" class="serif" font-size="10" fill="#8A94A1">Notarin · Schwester des Opfers</text>
    <circle cx="266" cy="312" r="12" fill="none" stroke="#5D6776"/>
  </g>
  <g>
    <rect x="34" y="350" width="252" height="56" rx="8" fill="#202836" stroke="#E0AA48"/>
    <text x="48" y="378" class="serif" font-size="13" fill="#DBE1E9">Viktor Hold</text>
    <text x="48" y="396" class="serif" font-size="10" fill="#8A94A1">Geschäftspartner</text>
    <circle cx="266" cy="378" r="12" fill="#E0AA48"/>
    <text x="266" y="382" class="mono" font-size="12" fill="#10141A" text-anchor="middle">✓</text>
  </g>
  <g>
    <rect x="34" y="416" width="252" height="56" rx="8" fill="#202836" stroke="#2A3340"/>
    <text x="48" y="444" class="serif" font-size="13" fill="#DBE1E9">Mara Senn</text>
    <text x="48" y="462" class="serif" font-size="10" fill="#8A94A1">Nachbarin</text>
    <circle cx="266" cy="444" r="12" fill="none" stroke="#5D6776"/>
  </g>
  <!-- grid hint -->
  <text x="40" y="506" class="mono" font-size="9" letter-spacing="2" fill="#8A94A1">DEIN ERMITTLUNGSRASTER</text>
  <rect x="34" y="518" width="252" height="40" rx="8" fill="#151A22" stroke="#2A3340"/>
  <text x="160" y="543" class="serif" font-size="11" fill="#8A94A1" text-anchor="middle">Motiv · Mittel · Gelegenheit</text>
  <!-- CTA -->
  <rect x="34" y="576" width="252" height="44" rx="10" fill="#E0AA48"/>
  <text x="160" y="603" class="serif" font-size="14" font-weight="bold" fill="#10141A" text-anchor="middle">Anklage erheben</text>
</svg>
